<svg xmlns="http://www.w3.org/2000/svg" viewBox="0 0 96 40">
  <g transform="translate(6,7)">
    <path d="M12.4 4.1c.7-.85 1.15-2 1.03-3.15-1 .04-2.2.67-2.9 1.5-.63.73-1.18 1.92-1.03 3.05 1.12.1 2.2-.55 2.9-1.4z" fill="#000"/>
    <path d="M13.4 5.7c-1.6-.1-2.97.9-3.73.9-.77 0-1.94-.85-3.2-.83-1.65.03-3.17 1-4 2.53-1.72 2.97-.45 7.37 1.22 9.78.82 1.18 1.8 2.5 3.08 2.45 1.23-.05 1.7-.8 3.18-.8s1.9.8 3.2.78c1.33-.03 2.17-1.2 2.98-2.4.94-1.36 1.33-2.68 1.35-2.75-.03-.02-2.58-1-2.6-3.93-.03-2.46 2-3.64 2.1-3.7-1.14-1.7-2.92-1.89-3.58-1.93z" fill="#000"/>
  </g>
  <text x="24" y="26" font-family="-apple-system,'Helvetica Neue',Arial,sans-serif" font-size="17" font-weight="600" font-style="italic" fill="#000">Pay</text>
</svg>
